<?xml version="1.0" standalone="no"?>
<svg viewBox="0 0 200 200" xmlns="http://www.w3.org/2000/svg">
  <path fill="#E6F1D9" d="M30,-52.5C41.8,-45.2,56.3,-43,57.5,-35.1C58.8,-27.2,46.8,-13.6,43.7,-1.8C40.6,10,46.4,20.1,47.6,32.3C48.9,44.5,45.6,58.9,36.9,68.7C28.2,78.5,14.1,83.8,3.3,78.1C-7.6,72.5,-15.1,55.9,-27.8,48.3C-40.5,40.8,-58.2,42.4,-70.3,35.8C-82.4,29.3,-88.7,14.6,-88.5,0.1C-88.3,-14.4,-81.5,-28.8,-71.5,-38.9C-61.5,-49,-48.3,-54.9,-35.8,-61.8C-23.4,-68.8,-11.7,-76.9,-1.3,-74.6C9.1,-72.4,18.2,-59.9,30,-52.5Z" transform="translate(100 100)" />
</svg>
