<?xml version="1.0" encoding="UTF-8" standalone="no"?>
<!-- Created with Inkscape (http://www.inkscape.org/) -->

<svg
   width="70.016441mm"
   height="59.51466mm"
   viewBox="0 0 70.016441 59.514658"
   version="1.1"
   id="svg5"
   xml:space="preserve"
   inkscape:version="1.2.2 (732a01da63, 2022-12-09)"
   sodipodi:docname="hojas.svg"
   xmlns:inkscape="http://www.inkscape.org/namespaces/inkscape"
   xmlns:sodipodi="http://sodipodi.sourceforge.net/DTD/sodipodi-0.dtd"
   xmlns="http://www.w3.org/2000/svg"
   xmlns:svg="http://www.w3.org/2000/svg"><sodipodi:namedview
     id="namedview7"
     pagecolor="#ffffff"
     bordercolor="#000000"
     borderopacity="0.25"
     inkscape:showpageshadow="2"
     inkscape:pageopacity="0.0"
     inkscape:pagecheckerboard="0"
     inkscape:deskcolor="#d1d1d1"
     inkscape:document-units="mm"
     showgrid="false"
     inkscape:zoom="0.49085999"
     inkscape:cx="113.06686"
     inkscape:cy="220.02201"
     inkscape:window-width="1366"
     inkscape:window-height="705"
     inkscape:window-x="-8"
     inkscape:window-y="-8"
     inkscape:window-maximized="1"
     inkscape:current-layer="OBJECTS" /><defs
     id="defs2"><clipPath
       clipPathUnits="userSpaceOnUse"
       id="clipPath1556"><g
         id="g1756">
	<g
   id="g1574">
		<g
   id="g1572">
			
				<path
   style="fill:none;stroke:#000000;stroke-width:3.2846;stroke-linecap:round;stroke-linejoin:round;stroke-miterlimit:10"
   d="m 113.328,592.197 c 12.478,-13.046 30.059,-21.171 49.537,-21.171 37.853,0 68.538,30.975 68.538,68.829 0,0.192 0.002,-0.192 0,0 0.002,0.193 0,-0.194 0,0 0,37.853 -30.685,68.831 -68.538,68.831 -18.12,0 -34.599,-7.032 -46.854,-18.516"
   id="path1558" />
			
				<path
   style="fill:none;stroke:#000000;stroke-width:3.2846;stroke-linecap:round;stroke-linejoin:round;stroke-miterlimit:10"
   d="m 205.69,606.985 c 7.163,9.17 11.434,20.712 11.434,33.211 0,0.151 0.001,-0.15 0,0 0.001,0.151 0,-0.152 0,0 0,18.473 -9.33,34.854 -23.535,44.58"
   id="path1560" />
			
				<path
   style="fill:none;stroke:#000000;stroke-width:3.2846;stroke-linecap:round;stroke-linejoin:round;stroke-miterlimit:10"
   d="m 167.909,678.609 c 8.677,8.14 15.043,14.112 15.043,14.112"
   id="path1562" />
			
				<path
   style="fill:none;stroke:#000000;stroke-width:3.2846;stroke-linecap:round;stroke-linejoin:round;stroke-miterlimit:10"
   d="m 130.696,598.894 c 0,0 34.057,31.949 51.989,48.77"
   id="path1564" />
			
				<line
   style="fill:none;stroke:#000000;stroke-width:3.2846;stroke-linecap:round;stroke-linejoin:round;stroke-miterlimit:10"
   x1="202.76601"
   y1="632.69501"
   x2="140.021"
   y2="691.55499"
   id="line1566" />
			
				<path
   style="fill:none;stroke:#000000;stroke-width:3.2846;stroke-linecap:round;stroke-linejoin:round;stroke-miterlimit:10"
   d="m 195.266,601.267 c -7.169,6.725 -18.404,17.265 -28.877,27.089"
   id="path1568" />
			
				<path
   style="fill:none;stroke:#000000;stroke-width:3.2846;stroke-linecap:round;stroke-linejoin:round;stroke-miterlimit:10"
   d="m 122.428,647.11 c -0.204,0.243 0.207,-0.241 0,0 -40.393,47.217 47.217,40.393 0,0 -47.217,-40.393 -40.393,47.217 0,0 0.205,-0.24 -0.207,0.238 0,0 v 0 c 0.204,-0.243 -0.206,0.242 0,0 40.394,-47.217 -47.217,-40.393 0,0 47.217,40.393 40.394,-47.217 0,0 -0.205,0.24 0.207,-0.238 0,0 z"
   id="path1570" />
		</g>
	</g>
	<g
   id="g1588">
		<g
   id="g1586">
			
				<path
   style="fill:none;stroke:#000000;stroke-width:3.3963;stroke-linecap:round;stroke-linejoin:round;stroke-miterlimit:10"
   d="m 820.899,398.07 c 0.003,0.198 0.004,0.395 0.004,0.593 0,0 1.832,34.593 -40.426,38.755 l -4.234,-0.076 c -9.332,-1.01 -16.474,-3.521 -21.939,-6.808"
   id="path1576" />
			
				<path
   style="fill:none;stroke:#000000;stroke-width:3.3963;stroke-linecap:round;stroke-linejoin:round;stroke-miterlimit:10"
   d="m 686.117,400.918 c 0.454,7.747 4.685,32.983 40.387,36.5 l 4.234,-0.076 c 41.498,-4.49 39.688,-38.679 39.688,-38.679 0,-14.402 -7.845,-29.463 -16.935,-42.487 -9.09,13.024 -16.935,28.085 -16.935,42.487 0,0 -0.325,6.132 2.453,13.544"
   id="path1578" />
			<g
   id="g1584">
				
					<path
   style="fill:none;stroke:#000000;stroke-width:3.3963;stroke-linecap:round;stroke-linejoin:round;stroke-miterlimit:10"
   d="m 771.813,435.788 c 32.248,-8.041 30.446,-37.124 30.446,-37.124 0,-30.941 -34.109,-64.927 -45.261,-75.212"
   id="path1580" />
				
					<path
   style="fill:none;stroke:#000000;stroke-width:3.3963;stroke-linecap:round;stroke-linejoin:round;stroke-miterlimit:10"
   d="m 749.946,323.533 c -11.242,10.381 -45.173,44.27 -45.173,75.13 0,0 -1.901,30.684 33.15,37.732"
   id="path1582" />
			</g>
		</g>
	</g>
	<g
   id="g1594">
		
			<path
   style="fill:none;stroke:#000000;stroke-width:2.6849;stroke-linecap:round;stroke-linejoin:round;stroke-miterlimit:10"
   d="m 384.2,633.818 c 1.065,-13.888 15.156,-23.32 22.505,-34.037 7.582,-11.057 11.494,-27.516 23.577,-33.323 11.713,-5.629 26.855,1.429 40.743,2.494 13.888,1.065 29.93,-3.601 40.647,3.748 11.057,7.582 12.414,24.444 18.22,36.528 5.629,11.712 18.116,23.182 17.051,37.071 -1.065,13.888 -15.156,23.32 -22.505,34.037 -7.581,11.057 -11.494,27.516 -23.577,33.323 -11.713,5.629 -26.855,-1.429 -40.743,-2.494 -13.888,-1.065 -29.93,3.601 -40.647,-3.748 -11.057,-7.581 -12.413,-24.444 -18.22,-36.528 -5.628,-11.712 -18.116,-23.182 -17.051,-37.071 z"
   id="path1590" />
		
			<path
   style="fill:none;stroke:#000000;stroke-width:2.6849;stroke-linecap:round;stroke-linejoin:round;stroke-miterlimit:10"
   d="m 393.295,618.878 c 3.595,-12.267 18.736,-17.632 27.37,-25.858 8.907,-8.487 15.153,-23.239 27.105,-26.156 11.585,-2.828 23.82,7.203 36.087,10.798 12.267,3.595 27.981,1.754 36.207,10.388 8.487,8.907 5.783,24.697 8.701,36.649 2.828,11.585 12.679,24.273 9.085,36.54 -3.595,12.267 -18.736,17.632 -27.37,25.858 -8.907,8.487 -15.154,23.239 -27.105,26.156 -11.585,2.828 -23.82,-7.203 -36.087,-10.798 -12.267,-3.595 -27.981,-1.754 -36.207,-10.388 -8.487,-8.907 -5.783,-24.697 -8.701,-36.649 -2.829,-11.584 -12.68,-24.273 -9.085,-36.54 z"
   id="path1592" />
	</g>
	<g
   id="g1618">
		<g
   id="g1616">
			<g
   id="g1598">
				
					<path
   style="fill:none;stroke:#000000;stroke-width:3.1277;stroke-linecap:round;stroke-linejoin:round;stroke-miterlimit:10"
   d="m 1009.433,595.466 c 0,0 -5.496,38.085 34.069,50.391 3.321,-41.302 -34.069,-50.391 -34.069,-50.391 z"
   id="path1596" />
			</g>
			<g
   id="g1602">
				
					<path
   style="fill:none;stroke:#000000;stroke-width:3.1277;stroke-linecap:round;stroke-linejoin:round;stroke-miterlimit:10"
   d="m 1076.67,705.271 v 0 c 0,0 30.552,-13.907 34.878,-55.891 v 0 c 4.326,-41.984 -22.747,-61.829 -22.747,-61.829 v 0 c 0,0 -30.552,13.907 -34.878,55.891 v 0 c -0.606,5.883 -0.596,11.331 -0.13,16.351"
   id="path1600" />
			</g>
			<g
   id="g1606">
				
					<path
   style="fill:none;stroke:#000000;stroke-width:3.1277;stroke-linecap:round;stroke-linejoin:round;stroke-miterlimit:10"
   d="m 1085.592,699.717 c 0,0 -7.059,-32.817 -47.15,-46.013 v 0 c -40.091,-13.196 -65.261,9.013 -65.261,9.013 v 0 c 0,0 7.059,32.817 47.15,46.013 v 0 c 40.09,13.196 65.261,-9.013 65.261,-9.013 z"
   id="path1604" />
			</g>
			
				<line
   style="fill:none;stroke:#000000;stroke-width:3.1277;stroke-linecap:round;stroke-linejoin:round;stroke-miterlimit:10"
   x1="1084.598"
   y1="699.07397"
   x2="1083.77"
   y2="631.21301"
   id="line1608" />
			
				<line
   style="fill:none;stroke:#000000;stroke-width:3.1277;stroke-linecap:round;stroke-linejoin:round;stroke-miterlimit:10"
   x1="1082.942"
   y1="698.24701"
   x2="1014.253"
   y2="677.55701"
   id="line1610" />
			
				<path
   style="fill:none;stroke:#000000;stroke-width:3.1277;stroke-linecap:round;stroke-linejoin:round;stroke-miterlimit:10"
   d="m 967.426,653.156 c -0.77,-4.257 -1.172,-8.643 -1.172,-13.122 0,-21.717 9.452,-41.227 24.467,-54.639"
   id="path1612" />
			
				<path
   style="fill:none;stroke:#000000;stroke-width:3.1277;stroke-linecap:round;stroke-linejoin:round;stroke-miterlimit:10"
   d="m 1003.422,576.278 c 10.648,-6.037 22.958,-9.484 36.073,-9.484 15.25,0 29.412,4.661 41.138,12.636"
   id="path1614" />
		</g>
	</g>
	<g
   id="g1636">
		<g
   id="g1634">
			
				<path
   style="fill:none;stroke:#000000;stroke-width:2.7368;stroke-linecap:round;stroke-linejoin:round;stroke-miterlimit:10"
   d="m 152.204,200.65 c -2.54,0.38 -5.14,0.577 -7.786,0.577 -28.795,0 -52.137,-23.563 -52.137,-52.358 0,-0.146 -0.001,0.146 0,0 -0.001,-0.147 0,0.147 0,0 0,-28.795 23.342,-52.36 52.137,-52.36 28.795,0 52.138,23.343 52.138,52.138 0,0.146 -0.001,0.293 -0.002,0.439 v -0.439 c 0.001,0.147 0.002,0.294 0.002,0.442 0,18.483 -9.618,34.72 -24.122,43.979"
   id="path1620" />
			
				<line
   style="fill:none;stroke:#000000;stroke-width:2.7368;stroke-linecap:round;stroke-linejoin:round;stroke-miterlimit:10"
   x1="145.925"
   y1="146.36301"
   x2="170.556"
   y2="167.345"
   id="line1622" />
			
				<path
   style="fill:none;stroke:#000000;stroke-width:2.7368;stroke-linecap:round;stroke-linejoin:round;stroke-miterlimit:10"
   d="m 150.573,125.335 c 0,0 8.842,6.928 19.983,17.379"
   id="path1624" />
			
				<line
   style="fill:none;stroke:#000000;stroke-width:2.7368;stroke-linecap:round;stroke-linejoin:round;stroke-miterlimit:10"
   x1="195.187"
   y1="146.36301"
   x2="170.556"
   y2="167.345"
   id="line1626" />
			
				<path
   style="fill:none;stroke:#000000;stroke-width:2.7368;stroke-linecap:round;stroke-linejoin:round;stroke-miterlimit:10"
   d="m 190.539,125.335 c 0,0 -8.842,6.928 -19.983,17.379"
   id="path1628" />
			
				<path
   style="fill:none;stroke:#000000;stroke-width:2.7368;stroke-linecap:round;stroke-linejoin:round;stroke-miterlimit:10"
   d="m 189.28,97.07 c 2.493,-0.369 5.044,-0.561 7.639,-0.561 28.795,0 52.138,23.343 52.138,52.138 0,0.146 -10e-4,0.293 -0.002,0.439 v -0.439 c 0.001,0.147 0.002,0.294 0.002,0.442 0,28.795 -23.343,52.138 -52.138,52.138 -28.795,0 -52.137,-23.563 -52.137,-52.358 0,-0.146 -0.001,0.146 0,0 -0.001,-0.147 0,0.147 0,0 0,-19.005 10.168,-35.732 25.361,-44.909"
   id="path1630" />
			
				<line
   style="fill:none;stroke:#000000;stroke-width:2.7368;stroke-linecap:round;stroke-linejoin:round;stroke-miterlimit:10"
   x1="170.556"
   y1="104.398"
   x2="170.556"
   y2="192.888"
   id="line1632" />
		</g>
	</g>
	<g
   id="g1664">
		<g
   id="g1662">
			
				<path
   style="fill:none;stroke:#000000;stroke-width:3.1499;stroke-linecap:round;stroke-linejoin:round;stroke-miterlimit:10"
   d="m 814.809,173.229 c 2.618,-6.796 4.056,-14.176 4.056,-21.895 0,-8.704 -1.827,-16.979 -5.114,-24.469"
   id="path1638" />
			
				<path
   style="fill:none;stroke:#000000;stroke-width:3.1499;stroke-linecap:round;stroke-linejoin:round;stroke-miterlimit:10"
   d="m 756.602,149.32 c 0.034,-0.001 0.068,-0.002 0.102,-0.003 0.01,-0.292 0.009,-0.587 0.022,-0.878 -0.049,-0.001 -0.098,-0.003 -0.146,-0.004 0.013,0.295 0.013,0.591 0.022,0.885 z"
   id="path1640" />
			
				<path
   style="fill:none;stroke:#000000;stroke-width:3.1499;stroke-linecap:round;stroke-linejoin:round;stroke-miterlimit:10"
   d="m 756.653,151.334 c 0,-0.676 0.029,-1.346 0.051,-2.017 -0.034,0.001 -0.068,0.002 -0.102,0.003 0.022,0.67 0.051,1.339 0.051,2.014 z"
   id="path1642" />
			
				<path
   style="fill:none;stroke:#000000;stroke-width:3.1499;stroke-linecap:round;stroke-linejoin:round;stroke-miterlimit:10"
   d="m 756.409,148.433 c -21.359,-0.507 -39.998,-11.982 -50.491,-29.023 -5.243,-8.516 -8.453,-18.415 -8.949,-29.027 10.874,0.228 21.046,3.293 29.805,8.499 11.22,6.669 20.119,16.831 25.194,28.989 0,0 -25.033,8.014 -39.733,-20.685"
   id="path1644" />
			
				<path
   style="fill:none;stroke:#000000;stroke-width:3.1499;stroke-linecap:round;stroke-linejoin:round;stroke-miterlimit:10"
   d="m 817.638,90.35 c -10.859,0 -21.047,2.851 -29.878,7.826 -17.772,10.011 -30.023,28.663 -31.033,50.264 0.385,0.007 0.767,0.029 1.155,0.029 21.975,0 41.228,-11.627 51.962,-29.06 5.244,-8.517 8.453,-18.418 8.949,-29.031 -0.386,-0.006 -0.768,-0.028 -1.155,-0.028 z"
   id="path1646" />
			
				<path
   style="fill:none;stroke:#000000;stroke-width:3.1499;stroke-linecap:round;stroke-linejoin:round;stroke-miterlimit:10"
   d="m 756.602,149.665 c 0.034,0.001 0.068,0.002 0.102,0.003 0.01,0.292 0.009,0.587 0.022,0.878 -0.049,0.001 -0.098,0.003 -0.146,0.004 0.013,-0.294 0.013,-0.591 0.022,-0.885 z"
   id="path1648" />
			
				<path
   style="fill:none;stroke:#000000;stroke-width:3.1499;stroke-linecap:round;stroke-linejoin:round;stroke-miterlimit:10"
   d="m 756.653,147.651 c 0,0.676 0.029,1.346 0.051,2.017 -0.034,-0.001 -0.068,-0.002 -0.102,-0.003 0.022,-0.67 0.051,-1.339 0.051,-2.014 z"
   id="path1650" />
			
				<path
   style="fill:none;stroke:#000000;stroke-width:3.1499;stroke-linecap:round;stroke-linejoin:round;stroke-miterlimit:10"
   d="m 705.919,179.576 c -5.243,8.516 -8.453,18.415 -8.949,29.027 10.874,-0.228 21.046,-3.293 29.805,-8.499 17.107,-10.167 28.818,-28.455 29.805,-49.555 -21.431,0.45 -40.141,11.94 -50.661,29.027 z"
   id="path1652" />
			
				<path
   style="fill:none;stroke:#000000;stroke-width:3.1499;stroke-linecap:round;stroke-linejoin:round;stroke-miterlimit:10"
   d="m 760.813,169.812 c 5.146,13.178 14.745,24.124 26.947,30.997 8.832,4.975 19.019,7.826 29.878,7.826 0.387,0 0.769,-0.022 1.155,-0.029 -0.496,-10.613 -3.706,-20.514 -8.949,-29.031 -10.734,-17.433 -29.987,-29.06 -51.962,-29.06 -0.131,0 -0.262,0.003 -0.393,0.006"
   id="path1654" />
			
				<path
   style="fill:none;stroke:#000000;stroke-width:3.1499;stroke-linecap:round;stroke-linejoin:round;stroke-miterlimit:10"
   d="m 700.75,173.229 c -2.618,-6.796 -4.057,-14.176 -4.057,-21.895 0,-8.704 1.827,-16.979 5.114,-24.469"
   id="path1656" />
			
				<path
   style="fill:none;stroke:#000000;stroke-width:3.1499;stroke-linecap:round;stroke-linejoin:round;stroke-miterlimit:10"
   d="m 734.598,93.018 c 6.795,-2.618 14.176,-4.056 21.895,-4.056 8.704,0 16.979,1.827 24.469,5.114"
   id="path1658" />
			
				<path
   style="fill:none;stroke:#000000;stroke-width:3.1499;stroke-linecap:round;stroke-linejoin:round;stroke-miterlimit:10"
   d="m 734.598,207.077 c 6.795,2.618 14.176,4.057 21.895,4.057 8.704,0 16.979,-1.827 24.469,-5.114"
   id="path1660" />
		</g>
	</g>
	<g
   id="g1682">
		<g
   id="g1680">
			
				<path
   style="fill:none;stroke:#000000;stroke-width:3.5082;stroke-linecap:round;stroke-linejoin:round;stroke-miterlimit:10"
   d="m 468.837,408.225 c 10.762,-15.994 31.014,-25.358 60.134,-27.268"
   id="path1666" />
			
				<path
   style="fill:none;stroke:#000000;stroke-width:3.5082;stroke-linecap:round;stroke-linejoin:round;stroke-miterlimit:10"
   d="m 464.186,313.102 c -69.728,0 -66.902,67.844 -66.902,67.844 101.703,21.672 65.928,78.209 65.928,78.209 0,0 -11.339,-17.903 -0.386,-39.78"
   id="path1668" />
			
				<path
   style="fill:none;stroke:#000000;stroke-width:3.5082;stroke-linecap:round;stroke-linejoin:round;stroke-miterlimit:10"
   d="m 528.328,369.14 c -2.8,-19.435 -14.872,-56.038 -66.089,-56.038"
   id="path1670" />
			
				<line
   style="fill:none;stroke:#000000;stroke-width:3.5082;stroke-linecap:round;stroke-linejoin:round;stroke-miterlimit:10"
   x1="463.18201"
   y1="400.73401"
   x2="463.18201"
   y2="313.10199"
   id="line1672" />
			
				<line
   style="fill:none;stroke:#000000;stroke-width:3.5082;stroke-linecap:round;stroke-linejoin:round;stroke-miterlimit:10"
   x1="464.186"
   y1="372.465"
   x2="520.72302"
   y2="349.85101"
   id="line1674" />
			
				<line
   style="fill:none;stroke:#000000;stroke-width:3.5082;stroke-linecap:round;stroke-linejoin:round;stroke-miterlimit:10"
   x1="463.24399"
   y1="355.504"
   x2="412.29901"
   y2="335.71701"
   id="line1676" />
			
				<line
   style="fill:none;stroke:#000000;stroke-width:3.5082;stroke-linecap:round;stroke-linejoin:round;stroke-miterlimit:10"
   x1="463.18201"
   y1="388.48401"
   x2="399.16901"
   y2="364.927"
   id="line1678" />
		</g>
	</g>
	<g
   id="g1694">
		<g
   id="g1692">
			<g
   id="g1688">
				
					<path
   style="fill:none;stroke:#000000;stroke-width:3.4813;stroke-linecap:round;stroke-linejoin:round;stroke-miterlimit:10"
   d="m 694.492,608.985 c 106.461,19.805 64.386,95.781 64.386,95.781 0,0 -17.08,-19.012 -0.377,-58.232"
   id="path1684" />
				
					<path
   style="fill:none;stroke:#000000;stroke-width:3.4813;stroke-linecap:round;stroke-linejoin:round;stroke-miterlimit:10"
   d="m 766.808,632.339 c 10.888,-13.486 29.556,-21.462 55.532,-23.304"
   id="path1686" />
			</g>
			
				<circle
   transform="matrix(0.9239,-0.3827,0.3827,0.9239,-170.9112,335.7128)"
   style="fill:none;stroke:#000000;stroke-width:3.4813;stroke-linecap:round;stroke-linejoin:round;stroke-miterlimit:10"
   cx="758.41602"
   cy="597.47101"
   id="circle1690"
   r="15.632" />
		</g>
	</g>
	<g
   id="g1702">
		<g
   id="g1700">
			
				<path
   style="fill:none;stroke:#000000;stroke-width:3.949;stroke-linecap:round;stroke-linejoin:round;stroke-miterlimit:10"
   d="m 1008.847,401.57 c 11.519,13.788 26.34,18.892 37.228,22.19 10.888,3.298 22.859,19.464 22.859,19.464 v 0 c 0,0 -13.779,-14.655 -15.088,-25.956 -1.309,-11.301 -3.695,-26.793 -15.214,-40.581 v 0 c -11.519,-13.788 -26.34,-18.891 -37.228,-22.19 -10.888,-3.298 -22.859,-19.464 -22.859,-19.464 v 0 c 0,0 13.779,14.655 15.087,25.956 1.309,11.301 3.695,26.793 15.215,40.581"
   id="path1696" />
			
				<path
   style="fill:none;stroke:#000000;stroke-width:3.949;stroke-linecap:round;stroke-linejoin:round;stroke-miterlimit:10"
   d="m 1080.02,401.57 c -11.519,13.788 -26.34,18.892 -37.228,22.19 -10.888,3.298 -22.859,19.464 -22.859,19.464 v 0 c 0,0 13.779,-14.655 15.088,-25.956 1.309,-11.301 3.695,-26.793 15.214,-40.581 v 0 c 11.52,-13.788 26.34,-18.891 37.228,-22.19 10.888,-3.298 22.859,-19.464 22.859,-19.464 v 0 c 0,0 -13.779,14.655 -15.087,25.956 -1.309,11.301 -3.695,26.793 -15.215,40.581"
   id="path1698" />
		</g>
	</g>
	<g
   id="g1714">
		<g
   id="g1712">
			
				<path
   style="fill:none;stroke:#000000;stroke-width:3.3486;stroke-linecap:round;stroke-linejoin:round;stroke-miterlimit:10"
   d="M 526.172,168.003 C 419.987,140.076 464.241,80.028 464.241,80.028 c 0,0 16.429,17.462 0.363,53.486"
   id="path1704" />
			
				<path
   style="fill:none;stroke:#000000;stroke-width:3.3486;stroke-linecap:round;stroke-linejoin:round;stroke-miterlimit:10"
   d="m 458.953,143.525 c -10.022,14.223 -28.797,22.607 -55.755,24.432"
   id="path1706" />
			
				<path
   style="fill:none;stroke:#000000;stroke-width:3.3486;stroke-linecap:round;stroke-linejoin:round;stroke-miterlimit:10"
   d="m 465.721,197.604 c 14.517,9.244 32.193,10.074 47.035,3.509 7.632,-3.376 14.505,-8.711 19.818,-15.86 -7.318,-4.705 -15.449,-7.261 -23.622,-7.803 -16.398,-1.087 -32.946,5.948 -43.417,20.038 -0.024,0.032 -0.048,0.064 -0.072,0.096 z"
   id="path1708" />
			
				<path
   style="fill:none;stroke:#000000;stroke-width:3.3486;stroke-linecap:round;stroke-linejoin:round;stroke-miterlimit:10"
   d="m 465.422,197.604 c -14.517,9.244 -32.193,10.074 -47.035,3.509 -7.632,-3.376 -14.505,-8.711 -19.818,-15.86 7.318,-4.705 15.449,-7.261 23.621,-7.803 16.398,-1.087 32.946,5.948 43.417,20.038 0.024,0.032 0.048,0.064 0.072,0.096 z"
   id="path1710" />
		</g>
	</g>
	<g
   id="g1734">
		<g
   id="g1732">
			<path
   d="m 120.443,429.82 c 0,0 30.482,-1.452 34.111,-34.111 -32.659,3.63 -34.111,34.111 -34.111,34.111 z"
   id="path1716" />
			<path
   d="m 218.8,429.82 c 0,0 -30.482,-1.452 -34.111,-34.111 32.659,3.63 34.111,34.111 34.111,34.111 z"
   id="path1718" />
			<path
   d="m 120.443,335.783 c 0,0 30.482,1.451 34.111,34.11 -32.659,-3.628 -34.111,-34.11 -34.111,-34.11 z"
   id="path1720" />
			<path
   d="m 218.8,335.783 c 0,0 -30.482,1.451 -34.111,34.11 32.659,-3.628 34.111,-34.11 34.111,-34.11 z"
   id="path1722" />
			
				<path
   style="fill:none;stroke:#000000;stroke-width:3.2058;stroke-linecap:round;stroke-linejoin:round;stroke-miterlimit:10"
   d="m 129.346,393.421 c 9.083,0 15.867,-4.624 20.676,-8.186 4.809,-3.562 14.961,-2.89 14.961,-2.89 v 0 c 0,0 -10.152,0.672 -14.961,-2.89 -4.809,-3.562 -11.592,-8.186 -20.676,-8.186 v 0 c -9.083,0 -15.867,4.624 -20.675,8.186 -4.809,3.562 -14.961,2.89 -14.961,2.89 v 0 c 0,0 10.152,-0.672 14.961,2.89 4.808,3.562 11.592,8.186 20.675,8.186"
   id="path1724" />
			
				<path
   style="fill:none;stroke:#000000;stroke-width:3.2058;stroke-linecap:round;stroke-linejoin:round;stroke-miterlimit:10"
   d="m 209.546,393.421 c 9.083,0 15.867,-4.624 20.676,-8.186 4.809,-3.562 14.96,-2.89 14.96,-2.89 v 0 c 0,0 -10.152,0.672 -14.96,-2.89 -4.809,-3.562 -11.592,-8.186 -20.676,-8.186 v 0 c -9.083,0 -15.867,4.624 -20.676,8.186 -4.809,3.562 -14.96,2.89 -14.96,2.89 v 0 c 0,0 10.152,-0.672 14.96,2.89 4.81,3.562 11.593,8.186 20.676,8.186"
   id="path1726" />
			
				<path
   style="fill:none;stroke:#000000;stroke-width:3.2058;stroke-linecap:round;stroke-linejoin:round;stroke-miterlimit:10"
   d="m 169.569,314.233 c 0,0 -26.607,27.606 0,62.157 26.608,-34.551 0,-62.157 0,-62.157 z"
   id="path1728" />
			
				<path
   style="fill:none;stroke:#000000;stroke-width:3.2058;stroke-linecap:round;stroke-linejoin:round;stroke-miterlimit:10"
   d="m 169.569,390.584 c 0,0 -26.607,27.606 0,62.157 26.608,-34.551 0,-62.157 0,-62.157 z"
   id="path1730" />
		</g>
	</g>
	<g
   id="g1754">
		<g
   id="g1744">
			
				<path
   style="fill:none;stroke:#000000;stroke-width:2.8165;stroke-linecap:round;stroke-linejoin:round;stroke-miterlimit:10"
   d="m 1091.062,163.349 c -88.086,-22.538 -51.375,-70.998 -51.375,-70.998 0,0 13.629,14.093 0.301,43.165"
   id="path1736" />
			
				<path
   style="fill:none;stroke:#000000;stroke-width:2.8165;stroke-linecap:round;stroke-linejoin:round;stroke-miterlimit:10"
   d="m 1034.892,144.146 c -8.41,11.144 -23.841,17.716 -45.844,19.166"
   id="path1738" />
			
				<path
   style="fill:none;stroke:#000000;stroke-width:2.8165;stroke-linecap:round;stroke-linejoin:round;stroke-miterlimit:10"
   d="m 989.049,141.513 c 88.086,22.538 51.375,70.999 51.375,70.999 0,0 -13.629,-14.093 -0.301,-43.165"
   id="path1740" />
			
				<path
   style="fill:none;stroke:#000000;stroke-width:2.8165;stroke-linecap:round;stroke-linejoin:round;stroke-miterlimit:10"
   d="m 1045.949,159.781 c 8.558,-10.577 23.733,-16.823 45.113,-18.231"
   id="path1742" />
		</g>
		
			<path
   style="fill:none;stroke:#000000;stroke-width:2.8165;stroke-linecap:round;stroke-linejoin:round;stroke-miterlimit:10"
   d="m 978.321,185.337 c -5.76,-10.25 -9.045,-22.077 -9.045,-34.672 0,-11.137 2.568,-21.674 7.145,-31.051"
   id="path1746" />
		
			<path
   style="fill:none;stroke:#000000;stroke-width:2.8165;stroke-linecap:round;stroke-linejoin:round;stroke-miterlimit:10"
   d="m 1103.887,119.613 c 4.577,9.377 7.146,19.915 7.146,31.052 0,12.594 -3.285,24.422 -9.045,34.672"
   id="path1748" />
		
			<path
   style="fill:none;stroke:#000000;stroke-width:2.8165;stroke-linecap:round;stroke-linejoin:round;stroke-miterlimit:10"
   d="m 1006.525,88.831 c 10.25,-5.76 22.077,-9.045 34.672,-9.045 11.137,0 21.674,2.569 31.051,7.145"
   id="path1750" />
		
			<path
   style="fill:none;stroke:#000000;stroke-width:2.8165;stroke-linecap:round;stroke-linejoin:round;stroke-miterlimit:10"
   d="m 1072.249,214.397 c -9.377,4.577 -19.915,7.146 -31.052,7.146 -12.594,0 -24.422,-3.285 -34.672,-9.045"
   id="path1752" />
	</g>
</g></clipPath></defs><g
     inkscape:label="Capa 1"
     inkscape:groupmode="layer"
     id="layer1"
     transform="translate(-139.12171,-138.84047)"><g
       id="g528"
       transform="matrix(0.26458333,0,0,0.26458333,-52.024045,27.843619)"><g
         id="g1882"
         transform="translate(449.8248,182.59585)"><g
           id="OBJECTS"
           transform="translate(-303.54888,5.0931021)">
	
	
	<g
   id="g1833"
   transform="translate(460.41643,6.1117225)">
		<g
   id="g1825">
			<path
   style="fill:#5e4f54"
   d="m 367.261,299.964 c -9.553,-0.616 -19.267,2.246 -27.029,7.838 -1.26,0.9 -2.464,1.886 -3.611,2.928 1.611,-3.033 3.203,-6.075 4.72,-9.155 l -1.668,-0.825 c -1.185,2.379 -2.398,4.748 -3.639,7.099 0.417,-4.085 0.142,-8.226 -0.872,-12.216 -1.545,-6.028 -5.013,-11.24 -7.43,-16.917 -1.365,-3.222 -2.369,-6.634 -2.36,-10.15 0,-0.569 -0.749,-0.616 -0.929,-0.133 -2.256,6.047 -2.966,12.633 -2.132,19.021 0.408,3.156 1.175,6.255 2.322,9.212 1.147,2.966 2.729,5.677 4.322,8.416 1.668,2.881 3.279,5.923 3.62,9.269 -1.668,3.118 -3.327,6.236 -4.938,9.373 0.853,-6.918 -1.374,-14.131 -4.426,-20.386 -1.251,-2.549 -2.635,-5.023 -4.037,-7.487 -0.218,-0.379 -0.739,-0.256 -0.872,0.114 -3.27,9.165 1.933,18.31 4.615,26.878 0.749,2.407 1.317,4.862 1.507,7.383 -1.147,2.388 -2.246,4.805 -3.279,7.26 -0.379,0.9 -0.739,1.81 -1.099,2.72 -0.189,-1.592 -0.673,-3.156 -1.317,-4.625 -1.497,-3.431 -3.848,-6.435 -5.108,-9.98 -0.171,-0.483 -0.948,-0.436 -0.929,0.123 0.18,7.051 2,13.989 5.269,20.225 -1.621,4.881 -2.872,9.875 -3.601,14.974 -0.171,1.194 1.659,1.706 1.829,0.502 0.758,-5.307 2.085,-10.453 3.781,-15.486 6.53,0.171 12.993,-3.364 16.32,-9.003 0.171,-0.294 -0.047,-0.739 -0.408,-0.711 -5.383,0.445 -10.539,2.625 -14.624,6.132 1.45,-3.838 3.099,-7.61 4.871,-11.325 3.725,1.393 7.62,2.654 11.629,2.303 4.246,-0.37 8.084,-2.426 11.411,-4.985 1.971,-1.507 3.791,-3.194 5.611,-4.871 0.303,-0.284 0.066,-0.815 -0.332,-0.815 -8.056,0.076 -16.5,0.208 -23.902,3.8 -1.061,0.521 -2.076,1.109 -3.061,1.753 1.298,-2.635 2.644,-5.241 4.009,-7.828 0.91,-1.725 1.82,-3.44 2.739,-5.156 0.076,-0.152 0.152,-0.303 0.237,-0.455 5.449,1.279 11.088,2.445 16.652,1.232 5.023,-1.09 8.909,-4.331 11.97,-8.331 1.696,-2.218 3.146,-4.606 4.578,-6.994 0.197,-0.332 -0.059,-0.692 -0.409,-0.721 z"
   id="path1821" />
			<path
   style="fill:#5e4f54"
   d="m 376.093,273.617 c -1.251,2.474 -2.521,4.947 -4.056,7.25 -2.711,4.056 -6.283,7.402 -11.088,8.71 -4.606,1.251 -9.468,0.758 -14.15,0.057 -1.649,4.047 -3.497,8.018 -5.459,11.941 l -1.668,-0.825 c 0.389,-0.787 0.787,-1.583 1.166,-2.379 1.441,-2.985 2.805,-6.028 4.075,-9.108 -0.104,-0.095 -0.133,-0.227 -0.114,-0.37 -2.492,-1.279 -4.758,-3.014 -6.615,-5.118 -1.981,-2.246 -3.44,-4.871 -4.36,-7.715 -1.005,-3.118 -1.412,-6.407 -1.687,-9.667 -0.616,-7.298 -1.08,-14.614 -1.611,-21.921 -0.038,-0.474 0.663,-0.635 0.881,-0.237 1.706,3.08 3.421,6.17 5.051,9.288 5.099,9.771 9.458,20.291 10.141,31.379 0.91,-2.483 1.744,-4.985 2.455,-7.516 -0.009,-0.085 -0.019,-0.171 -0.019,-0.256 -0.379,-4.123 -0.749,-8.245 -1.128,-12.368 -0.36,-3.962 -0.844,-7.951 -0.644,-11.932 0.19,-3.829 1.213,-7.402 2.995,-10.795 1.829,-3.488 4.085,-6.767 6.189,-10.093 0.995,-1.564 1.924,-3.213 3.165,-4.596 0.806,-0.9 2.493,-2.36 3.696,-1.204 0.54,0.521 0.54,1.298 0.512,1.99 -0.038,1.024 -0.085,2.038 -0.123,3.061 -0.085,2.076 -0.171,4.151 -0.256,6.227 -0.171,4.056 -0.275,8.122 -0.569,12.169 -0.294,3.867 -0.825,7.734 -2.076,11.42 -2.142,6.35 -6.028,11.875 -9.999,17.211 -0.18,0.626 -0.36,1.251 -0.55,1.876 0,0.019 0.009,0.038 0.009,0.066 0.009,0.161 -0.047,0.275 -0.142,0.351 -0.569,1.801 -1.185,3.582 -1.839,5.345 1.005,-0.938 2.047,-1.839 3.128,-2.682 6.966,-5.478 15.363,-9.079 24.148,-10.264 0.41,-0.053 0.742,0.298 0.542,0.705 z"
   id="path1823" />
		</g>
		<path
   style="fill:#ddc0ac"
   d="m 380.317,310.304 c -1.287,2.441 -2.573,4.882 -3.851,7.323 -1.137,2.15 -2.274,4.301 -3.402,6.46 -1.031,1.956 -2.062,3.931 -3.314,5.772 -2.001,2.943 -4.706,5.587 -8.152,6.662 -1.789,2.344 -3.684,4.591 -5.684,6.751 5.931,-3.455 12.717,-5.402 19.582,-5.57 0.405,-0.009 0.546,0.476 0.308,0.749 -1.41,1.622 -3.005,3.076 -4.75,4.336 -5.781,4.212 -13.069,6.222 -20.19,5.552 -2.097,1.956 -4.301,3.816 -6.574,5.57 5.684,-1.401 11.686,-1.419 17.379,0 0.361,0.097 0.441,0.634 0.106,0.811 -6.618,3.419 -14.453,4.221 -21.627,2.203 -2.15,1.481 -4.371,2.864 -6.636,4.16 -0.996,0.555 -1.877,-0.961 -0.89,-1.525 2.221,-1.26 4.38,-2.609 6.495,-4.045 0,-7.473 2.564,-14.823 7.209,-20.684 0.238,-0.308 0.758,-0.044 0.749,0.308 -0.141,6.504 -1.992,12.92 -5.314,18.498 2.714,-2.001 5.314,-4.168 7.79,-6.46 0.308,-2.097 0.687,-4.186 1.137,-6.266 0.811,-3.754 1.851,-7.456 3.111,-11.087 0.934,-2.679 2.142,-5.614 4.812,-6.971 0.264,-0.141 0.696,0.026 0.661,0.379 -0.176,1.877 -0.432,3.745 -0.793,5.605 -0.952,4.944 -2.582,9.756 -4.821,14.277 1.719,-1.815 3.375,-3.684 4.935,-5.623 0.018,-0.053 0.044,-0.097 0.079,-0.132 0.185,-0.203 0.352,-0.414 0.52,-0.626 0.062,-0.079 0.123,-0.15 0.185,-0.229 1.41,-1.904 2.15,-4.213 2.882,-6.451 0.723,-2.212 1.533,-4.362 2.644,-6.416 1.093,-2.009 2.397,-3.895 3.878,-5.631 3.005,-3.508 6.751,-6.372 10.937,-8.31 0.396,-0.174 0.819,0.196 0.599,0.61 z"
   id="path1827" />
		<path
   style="fill:#5e4f54"
   d="m 211.658,348.727 c -2.101,2.814 -3.389,6.075 -4.33,9.428 -1.663,5.956 -2.348,12.241 -5.061,17.859 -2.53,5.253 -7.454,9.217 -9.418,14.735 1.343,2.805 2.85,5.536 4.54,8.167 -0.74,-1.955 -0.137,-4.211 0.895,-6.048 0.777,-1.398 1.727,-2.695 2.613,-4.02 0.932,-1.389 1.864,-2.777 2.795,-4.166 0.265,-0.393 0.813,-0.219 0.859,0.228 0.283,2.969 -0.155,6.002 -1.279,8.761 -0.557,1.37 -1.261,2.677 -2.129,3.873 -0.822,1.133 -2.128,2.256 -2.147,3.755 0,0.009 -0.009,0.009 -0.009,0.018 0.731,1.032 1.489,2.055 2.293,3.051 0.722,0.914 -0.566,2.22 -1.297,1.297 -3.59,-4.504 -6.532,-9.427 -8.989,-14.598 -3.709,0.274 -7.436,0.493 -11.154,0.667 -3.398,0.146 -6.797,0.256 -10.195,0.32 -3.079,0.064 -6.203,0.11 -9.245,-0.484 -2.896,-0.566 -5.499,-1.827 -7.82,-3.645 -2.275,-1.79 -4.202,-3.965 -6.102,-6.13 -0.283,-0.32 -0.073,-0.74 0.32,-0.786 4.239,-0.512 8.478,-1.041 12.725,-1.526 6.934,-0.786 14.278,-1.288 20.947,1.215 3.115,1.169 6.048,2.96 8.34,5.344 -0.585,-1.434 -1.151,-2.887 -1.672,-4.358 -1.188,-3.353 -2.211,-6.751 -3.143,-10.177 -3.709,-1.142 -7.454,-2.119 -11.209,-3.069 -6.76,-1.717 -13.529,-3.407 -20.07,-5.865 -6.322,-2.366 -12.424,-5.308 -18.216,-8.779 -0.384,-0.228 -0.238,-0.868 0.228,-0.85 4.723,0.137 9.446,0.238 14.169,0.42 7.692,0.283 15.612,0.959 22.692,4.23 4.358,2.01 8.331,4.997 11.099,8.898 -1.27,-5.216 -2.366,-10.478 -3.481,-15.731 -3.828,-0.722 -7.628,-1.562 -11.419,-2.439 -7.071,-1.635 -14.269,-3.124 -21.038,-5.801 -5.856,-2.329 -11.428,-5.664 -15.521,-10.542 -0.238,-0.283 -0.11,-0.795 0.32,-0.776 0.987,0.036 1.973,0.064 2.96,0.1 4.02,0.137 8.039,0.274 12.059,0.411 3.544,0.128 7.116,0.146 10.643,0.63 3.28,0.448 6.559,1.343 9.327,3.216 2.668,1.809 4.705,4.321 6.577,6.897 0.968,1.325 1.891,2.677 2.868,3.992 0.713,0.95 1.644,2.037 2.722,1.964 -1.288,-6.011 -2.622,-12.013 -4.312,-17.923 -0.658,-2.32 -1.389,-4.632 -2.192,-6.925 -3.133,0.247 -6.276,0.503 -9.409,0.758 -6.194,0.493 -12.515,1.352 -18.718,0.63 -5.911,-0.685 -11.245,-3.225 -16.526,-5.828 -0.347,-0.174 -0.256,-0.749 0.11,-0.831 3.535,-0.831 7.08,-1.653 10.652,-2.302 6.239,-1.124 12.643,-1.69 18.937,-0.703 4.823,0.758 9.482,2.43 13.712,4.869 -1.736,-4.504 -3.764,-8.889 -6.194,-13.027 -3.636,1.352 -7.473,2.658 -11.401,2.238 -3.462,-0.365 -6.513,-2.393 -9.976,-2.658 -1.836,-0.146 -3.608,0.375 -5.417,0.603 -1.69,0.219 -3.316,0.036 -4.878,-0.63 -3.079,-1.315 -5.262,-3.91 -7.655,-6.139 -2.421,-2.247 -5.673,-4.412 -9.126,-3.407 -0.566,0.164 -0.804,-0.713 -0.247,-0.886 4.184,-1.252 8.386,-2.494 12.689,-3.261 3.745,-0.667 7.582,-0.968 11.364,-0.53 3.407,0.384 6.669,1.389 9.766,2.85 4.778,2.266 9.007,5.472 13.054,8.861 -0.192,-0.292 -0.375,-0.594 -0.566,-0.886 -0.183,0.009 -0.375,-0.082 -0.448,-0.311 -0.073,-0.228 -0.164,-0.457 -0.247,-0.685 -0.649,-0.914 -1.315,-1.818 -2.01,-2.695 -0.228,0.1 -0.557,0.046 -0.667,-0.265 -0.11,-0.329 -0.228,-0.658 -0.338,-0.996 -0.667,-0.804 -1.361,-1.59 -2.074,-2.366 -1.115,-0.859 -2.302,-1.626 -3.499,-2.32 -3.663,-2.128 -7.61,-3.791 -10.953,-6.449 -3.243,-2.585 -5.627,-6.066 -7.564,-9.692 -3.554,-6.632 -5.874,-14.059 -10.524,-20.034 -0.594,-0.621 -1.16,-1.279 -1.681,-1.991 0,0 -0.009,0 -0.009,-0.009 -0.018,-0.027 -0.046,-0.055 -0.073,-0.091 -0.311,-0.42 0.375,-0.923 0.722,-0.548 0.603,0.639 1.16,1.325 1.699,2.01 2.101,2.202 4.65,3.928 7.281,5.445 5.965,3.426 12.808,6.029 17.32,11.465 2.75,3.316 4.312,7.381 5.719,11.401 1.215,3.444 2.412,6.897 3.608,10.35 2.622,2.932 4.951,6.13 7.016,9.492 -0.201,-2.64 -0.941,-5.207 -1.827,-7.71 -1.096,-3.051 -2.403,-6.029 -3.334,-9.135 -0.987,-3.307 -1.361,-6.714 -1.325,-10.168 0.046,-3.709 0.466,-7.4 0.813,-11.081 0.347,-3.736 0.694,-7.473 1.041,-11.209 0.046,-0.475 0.822,-0.667 0.895,-0.128 0.502,3.599 2.074,6.87 3.745,10.049 1.462,2.795 3.005,5.563 4.029,8.56 1.178,3.444 1.425,7.08 1.124,10.688 -0.32,3.764 -1.142,7.464 -1.9,11.154 -0.731,3.59 -1.462,7.18 -2.202,10.77 0.466,0.795 0.914,1.608 1.343,2.421 1.389,2.622 2.604,5.289 3.718,8.002 -0.238,-1.827 -0.375,-3.672 -0.393,-5.509 -0.073,-6.212 1.06,-12.451 3.27,-18.252 2.22,-5.783 5.49,-11.145 9.729,-15.685 0.347,-0.375 0.996,0.119 0.713,0.557 -1.772,2.777 -2.466,6.038 -2.713,9.281 -0.238,3.206 -0.082,6.422 -0.265,9.619 -0.174,2.969 -0.713,5.901 -1.553,8.761 -1.644,5.618 -4.294,10.88 -6.952,16.078 0.064,0.183 0.128,0.356 0.183,0.53 0.183,0.101 0.247,0.32 0.183,0.521 2.375,6.925 4.12,14.068 5.71,21.249 0.146,-3.435 0.338,-6.861 0.713,-10.277 0.776,-7.144 2.494,-14.096 5.399,-20.673 2.759,-6.276 6.495,-12.095 11.026,-17.229 0.256,-0.283 0.813,-0.064 0.776,0.329 -0.082,0.968 -0.155,1.937 -0.237,2.905 -0.649,7.728 -1.434,15.493 -3.38,23.021 -1.818,7.016 -4.732,13.721 -8.706,19.778 -0.959,1.48 -1.982,2.905 -3.069,4.303 -0.475,0.612 -1.005,1.37 -1.635,1.946 0.694,3.234 1.37,6.468 2.074,9.693 0.685,3.133 1.407,6.294 2.202,9.446 0.137,-2.613 0.402,-5.216 0.831,-7.801 1.233,-7.418 3.7,-14.626 7.217,-21.276 3.526,-6.669 8.139,-12.771 13.648,-17.942 0.402,-0.365 0.932,0.1 0.722,0.557 -1.909,4.074 -2.96,8.477 -3.809,12.871 -1.416,7.217 -2.393,14.689 -5.911,21.267 -0.831,1.544 -1.8,3.015 -2.914,4.367 -1.078,1.315 -2.32,2.494 -3.554,3.663 -2.01,1.882 -4.12,3.837 -5.399,6.294 -0.009,0.384 0,0.767 0,1.151 1.471,5.435 3.197,10.816 5.372,15.978 -0.082,-2.567 0.585,-5.125 1.48,-7.555 1.151,-3.143 2.53,-6.185 3.645,-9.345 1.124,-3.152 2.183,-6.331 3.581,-9.373 2.348,-5.125 5.938,-10.076 11.273,-12.351 0.366,-0.157 0.933,0.209 0.631,0.62 z"
   id="path1829" />
		<path
   style="fill:#ddc0ac"
   d="m 201.484,424.604 c -1.483,-0.136 -2.962,-0.313 -4.435,-0.522 -0.043,0.056 -0.096,0.104 -0.163,0.134 -1.136,2.279 -2.392,4.494 -3.78,6.626 -5.166,7.91 -12.035,14.685 -20.015,19.727 -0.344,0.21 -0.877,0.011 -0.802,-0.464 0.46,-2.78 1.273,-5.489 2.43,-8.053 3.791,-8.425 11.041,-15.294 19.757,-18.388 -4.513,-0.794 -8.964,-1.939 -13.304,-3.444 -0.106,0.106 -0.269,0.169 -0.422,0.16 -0.243,-0.006 -0.495,-0.002 -0.738,-0.008 -1.068,1.967 -2.425,3.751 -4.011,5.336 -3.453,3.471 -7.736,5.987 -11.953,8.403 -5.487,3.149 -10.976,6.288 -16.465,9.427 -0.411,0.239 -0.777,-0.285 -0.656,-0.646 0.95,-2.96 2.304,-5.774 4.012,-8.365 6.194,-9.367 16.804,-15.028 27.951,-15.171 -5.735,-2.168 -11.215,-4.967 -16.335,-8.301 -0.071,0 -0.136,-0.032 -0.202,-0.073 l -0.415,-0.154 c -2.655,1.38 -5.517,2.285 -8.448,2.845 -11.074,2.112 -22.922,-0.374 -33.551,4.058 -0.524,0.225 -0.947,-0.494 -0.512,-0.847 2.633,-2.114 5.512,-3.91 8.573,-5.347 9.74,-4.581 21.136,-5.546 31.467,-2.566 -3.288,-2.358 -6.416,-4.95 -9.333,-7.764 -1.999,1.016 -4.293,1.286 -6.505,1.07 -2.181,-0.221 -4.296,-0.905 -6.34,-1.659 -2.204,-0.813 -4.394,-1.678 -6.592,-2.523 -4.544,-1.738 -9.078,-3.478 -13.612,-5.218 -0.511,-0.191 -0.318,-0.834 0.119,-0.956 2.529,-0.686 5.131,-1.07 7.745,-1.152 7.309,-0.223 14.654,1.831 20.748,5.847 -2.634,-2.954 -5.07,-6.087 -7.275,-9.364 -1.633,-1.499 -3.162,-3.123 -4.545,-4.858 -6.402,-8.032 -9.919,-18.254 -9.697,-28.523 0.013,-0.416 0.665,-0.588 0.895,-0.246 1.524,2.382 2.984,4.814 4.369,7.286 4.913,8.795 8.851,18.12 11.723,27.776 0.06,0.214 -0.005,0.395 -0.139,0.524 2.823,3.877 5.957,7.519 9.381,10.857 0.146,0.03 0.254,0.156 0.306,0.311 2.462,2.372 5.075,4.602 7.806,6.665 -0.927,-1.072 -1.82,-2.189 -2.648,-3.346 -6.748,-9.427 -10.044,-21.245 -8.94,-32.789 0.053,-0.563 0.941,-0.566 0.989,-0.007 0.277,3.071 1.269,5.982 2.576,8.758 2.35,4.973 5.508,9.51 7.794,14.532 2.344,5.145 4.014,10.597 4.975,16.178 1.121,0.722 2.238,1.424 3.382,2.093 2.572,1.499 5.234,2.844 7.948,4.06 -0.866,-0.707 -1.671,-1.483 -2.405,-2.33 -2.371,-2.738 -4.037,-5.989 -5.694,-9.181 -1.794,-3.445 -3.59,-6.91 -5.092,-10.507 -2.825,-6.785 -4.599,-14.281 -3.099,-21.619 0.111,-0.581 0.843,-0.542 0.989,-0.007 1.004,3.717 2.425,7.315 4.091,10.788 2.949,6.151 6.641,11.916 10.228,17.716 1.797,2.889 3.644,5.782 5.178,8.809 1.367,2.707 2.396,5.592 2.515,8.615 0.097,0.118 0.149,0.272 0.13,0.426 4.053,1.403 8.209,2.529 12.436,3.302 -2.184,-1.472 -4.209,-3.169 -6.058,-5.061 -10.324,-10.594 -14.023,-25.516 -15.236,-39.846 -0.045,-0.539 0.773,-0.825 0.963,-0.266 1.189,3.6 2.771,7.045 4.57,10.388 6.304,11.741 15.186,22.274 18.811,35.298 1.558,0.237 3.118,0.423 4.684,0.568 0.644,0.053 0.511,1.051 -0.124,0.988 z"
   id="path1831" />
	</g>
</g></g></g></g></svg>
