<?xml version="1.0" encoding="UTF-8" standalone="no"?>
<!-- Created with Inkscape (http://www.inkscape.org/) -->

<svg
   width="188.54817mm"
   height="174.96674mm"
   viewBox="0 0 188.54817 174.96673"
   version="1.1"
   id="svg5"
   xml:space="preserve"
   inkscape:version="1.2.2 (732a01da63, 2022-12-09)"
   sodipodi:docname="piernas2.svg"
   xmlns:inkscape="http://www.inkscape.org/namespaces/inkscape"
   xmlns:sodipodi="http://sodipodi.sourceforge.net/DTD/sodipodi-0.dtd"
   xmlns="http://www.w3.org/2000/svg"
   xmlns:svg="http://www.w3.org/2000/svg"><sodipodi:namedview
     id="namedview7"
     pagecolor="#ffffff"
     bordercolor="#000000"
     borderopacity="0.25"
     inkscape:showpageshadow="2"
     inkscape:pageopacity="0.0"
     inkscape:pagecheckerboard="0"
     inkscape:deskcolor="#d1d1d1"
     inkscape:document-units="mm"
     showgrid="false"
     inkscape:zoom="0.34709043"
     inkscape:cx="246.3335"
     inkscape:cy="674.1759"
     inkscape:window-width="1366"
     inkscape:window-height="705"
     inkscape:window-x="-8"
     inkscape:window-y="-8"
     inkscape:window-maximized="1"
     inkscape:current-layer="g2981" /><defs
     id="defs2"><clipPath
       clipPathUnits="userSpaceOnUse"
       id="clipPath1556"><g
         id="g1756">
	<g
   id="g1574">
		<g
   id="g1572">
			
				<path
   style="fill:none;stroke:#000000;stroke-width:3.2846;stroke-linecap:round;stroke-linejoin:round;stroke-miterlimit:10"
   d="m 113.328,592.197 c 12.478,-13.046 30.059,-21.171 49.537,-21.171 37.853,0 68.538,30.975 68.538,68.829 0,0.192 0.002,-0.192 0,0 0.002,0.193 0,-0.194 0,0 0,37.853 -30.685,68.831 -68.538,68.831 -18.12,0 -34.599,-7.032 -46.854,-18.516"
   id="path1558" />
			
				<path
   style="fill:none;stroke:#000000;stroke-width:3.2846;stroke-linecap:round;stroke-linejoin:round;stroke-miterlimit:10"
   d="m 205.69,606.985 c 7.163,9.17 11.434,20.712 11.434,33.211 0,0.151 0.001,-0.15 0,0 0.001,0.151 0,-0.152 0,0 0,18.473 -9.33,34.854 -23.535,44.58"
   id="path1560" />
			
				<path
   style="fill:none;stroke:#000000;stroke-width:3.2846;stroke-linecap:round;stroke-linejoin:round;stroke-miterlimit:10"
   d="m 167.909,678.609 c 8.677,8.14 15.043,14.112 15.043,14.112"
   id="path1562" />
			
				<path
   style="fill:none;stroke:#000000;stroke-width:3.2846;stroke-linecap:round;stroke-linejoin:round;stroke-miterlimit:10"
   d="m 130.696,598.894 c 0,0 34.057,31.949 51.989,48.77"
   id="path1564" />
			
				<line
   style="fill:none;stroke:#000000;stroke-width:3.2846;stroke-linecap:round;stroke-linejoin:round;stroke-miterlimit:10"
   x1="202.76601"
   y1="632.69501"
   x2="140.021"
   y2="691.55499"
   id="line1566" />
			
				<path
   style="fill:none;stroke:#000000;stroke-width:3.2846;stroke-linecap:round;stroke-linejoin:round;stroke-miterlimit:10"
   d="m 195.266,601.267 c -7.169,6.725 -18.404,17.265 -28.877,27.089"
   id="path1568" />
			
				<path
   style="fill:none;stroke:#000000;stroke-width:3.2846;stroke-linecap:round;stroke-linejoin:round;stroke-miterlimit:10"
   d="m 122.428,647.11 c -0.204,0.243 0.207,-0.241 0,0 -40.393,47.217 47.217,40.393 0,0 -47.217,-40.393 -40.393,47.217 0,0 0.205,-0.24 -0.207,0.238 0,0 v 0 c 0.204,-0.243 -0.206,0.242 0,0 40.394,-47.217 -47.217,-40.393 0,0 47.217,40.393 40.394,-47.217 0,0 -0.205,0.24 0.207,-0.238 0,0 z"
   id="path1570" />
		</g>
	</g>
	<g
   id="g1588">
		<g
   id="g1586">
			
				<path
   style="fill:none;stroke:#000000;stroke-width:3.3963;stroke-linecap:round;stroke-linejoin:round;stroke-miterlimit:10"
   d="m 820.899,398.07 c 0.003,0.198 0.004,0.395 0.004,0.593 0,0 1.832,34.593 -40.426,38.755 l -4.234,-0.076 c -9.332,-1.01 -16.474,-3.521 -21.939,-6.808"
   id="path1576" />
			
				<path
   style="fill:none;stroke:#000000;stroke-width:3.3963;stroke-linecap:round;stroke-linejoin:round;stroke-miterlimit:10"
   d="m 686.117,400.918 c 0.454,7.747 4.685,32.983 40.387,36.5 l 4.234,-0.076 c 41.498,-4.49 39.688,-38.679 39.688,-38.679 0,-14.402 -7.845,-29.463 -16.935,-42.487 -9.09,13.024 -16.935,28.085 -16.935,42.487 0,0 -0.325,6.132 2.453,13.544"
   id="path1578" />
			<g
   id="g1584">
				
					<path
   style="fill:none;stroke:#000000;stroke-width:3.3963;stroke-linecap:round;stroke-linejoin:round;stroke-miterlimit:10"
   d="m 771.813,435.788 c 32.248,-8.041 30.446,-37.124 30.446,-37.124 0,-30.941 -34.109,-64.927 -45.261,-75.212"
   id="path1580" />
				
					<path
   style="fill:none;stroke:#000000;stroke-width:3.3963;stroke-linecap:round;stroke-linejoin:round;stroke-miterlimit:10"
   d="m 749.946,323.533 c -11.242,10.381 -45.173,44.27 -45.173,75.13 0,0 -1.901,30.684 33.15,37.732"
   id="path1582" />
			</g>
		</g>
	</g>
	<g
   id="g1594">
		
			<path
   style="fill:none;stroke:#000000;stroke-width:2.6849;stroke-linecap:round;stroke-linejoin:round;stroke-miterlimit:10"
   d="m 384.2,633.818 c 1.065,-13.888 15.156,-23.32 22.505,-34.037 7.582,-11.057 11.494,-27.516 23.577,-33.323 11.713,-5.629 26.855,1.429 40.743,2.494 13.888,1.065 29.93,-3.601 40.647,3.748 11.057,7.582 12.414,24.444 18.22,36.528 5.629,11.712 18.116,23.182 17.051,37.071 -1.065,13.888 -15.156,23.32 -22.505,34.037 -7.581,11.057 -11.494,27.516 -23.577,33.323 -11.713,5.629 -26.855,-1.429 -40.743,-2.494 -13.888,-1.065 -29.93,3.601 -40.647,-3.748 -11.057,-7.581 -12.413,-24.444 -18.22,-36.528 -5.628,-11.712 -18.116,-23.182 -17.051,-37.071 z"
   id="path1590" />
		
			<path
   style="fill:none;stroke:#000000;stroke-width:2.6849;stroke-linecap:round;stroke-linejoin:round;stroke-miterlimit:10"
   d="m 393.295,618.878 c 3.595,-12.267 18.736,-17.632 27.37,-25.858 8.907,-8.487 15.153,-23.239 27.105,-26.156 11.585,-2.828 23.82,7.203 36.087,10.798 12.267,3.595 27.981,1.754 36.207,10.388 8.487,8.907 5.783,24.697 8.701,36.649 2.828,11.585 12.679,24.273 9.085,36.54 -3.595,12.267 -18.736,17.632 -27.37,25.858 -8.907,8.487 -15.154,23.239 -27.105,26.156 -11.585,2.828 -23.82,-7.203 -36.087,-10.798 -12.267,-3.595 -27.981,-1.754 -36.207,-10.388 -8.487,-8.907 -5.783,-24.697 -8.701,-36.649 -2.829,-11.584 -12.68,-24.273 -9.085,-36.54 z"
   id="path1592" />
	</g>
	<g
   id="g1618">
		<g
   id="g1616">
			<g
   id="g1598">
				
					<path
   style="fill:none;stroke:#000000;stroke-width:3.1277;stroke-linecap:round;stroke-linejoin:round;stroke-miterlimit:10"
   d="m 1009.433,595.466 c 0,0 -5.496,38.085 34.069,50.391 3.321,-41.302 -34.069,-50.391 -34.069,-50.391 z"
   id="path1596" />
			</g>
			<g
   id="g1602">
				
					<path
   style="fill:none;stroke:#000000;stroke-width:3.1277;stroke-linecap:round;stroke-linejoin:round;stroke-miterlimit:10"
   d="m 1076.67,705.271 v 0 c 0,0 30.552,-13.907 34.878,-55.891 v 0 c 4.326,-41.984 -22.747,-61.829 -22.747,-61.829 v 0 c 0,0 -30.552,13.907 -34.878,55.891 v 0 c -0.606,5.883 -0.596,11.331 -0.13,16.351"
   id="path1600" />
			</g>
			<g
   id="g1606">
				
					<path
   style="fill:none;stroke:#000000;stroke-width:3.1277;stroke-linecap:round;stroke-linejoin:round;stroke-miterlimit:10"
   d="m 1085.592,699.717 c 0,0 -7.059,-32.817 -47.15,-46.013 v 0 c -40.091,-13.196 -65.261,9.013 -65.261,9.013 v 0 c 0,0 7.059,32.817 47.15,46.013 v 0 c 40.09,13.196 65.261,-9.013 65.261,-9.013 z"
   id="path1604" />
			</g>
			
				<line
   style="fill:none;stroke:#000000;stroke-width:3.1277;stroke-linecap:round;stroke-linejoin:round;stroke-miterlimit:10"
   x1="1084.598"
   y1="699.07397"
   x2="1083.77"
   y2="631.21301"
   id="line1608" />
			
				<line
   style="fill:none;stroke:#000000;stroke-width:3.1277;stroke-linecap:round;stroke-linejoin:round;stroke-miterlimit:10"
   x1="1082.942"
   y1="698.24701"
   x2="1014.253"
   y2="677.55701"
   id="line1610" />
			
				<path
   style="fill:none;stroke:#000000;stroke-width:3.1277;stroke-linecap:round;stroke-linejoin:round;stroke-miterlimit:10"
   d="m 967.426,653.156 c -0.77,-4.257 -1.172,-8.643 -1.172,-13.122 0,-21.717 9.452,-41.227 24.467,-54.639"
   id="path1612" />
			
				<path
   style="fill:none;stroke:#000000;stroke-width:3.1277;stroke-linecap:round;stroke-linejoin:round;stroke-miterlimit:10"
   d="m 1003.422,576.278 c 10.648,-6.037 22.958,-9.484 36.073,-9.484 15.25,0 29.412,4.661 41.138,12.636"
   id="path1614" />
		</g>
	</g>
	<g
   id="g1636">
		<g
   id="g1634">
			
				<path
   style="fill:none;stroke:#000000;stroke-width:2.7368;stroke-linecap:round;stroke-linejoin:round;stroke-miterlimit:10"
   d="m 152.204,200.65 c -2.54,0.38 -5.14,0.577 -7.786,0.577 -28.795,0 -52.137,-23.563 -52.137,-52.358 0,-0.146 -0.001,0.146 0,0 -0.001,-0.147 0,0.147 0,0 0,-28.795 23.342,-52.36 52.137,-52.36 28.795,0 52.138,23.343 52.138,52.138 0,0.146 -0.001,0.293 -0.002,0.439 v -0.439 c 0.001,0.147 0.002,0.294 0.002,0.442 0,18.483 -9.618,34.72 -24.122,43.979"
   id="path1620" />
			
				<line
   style="fill:none;stroke:#000000;stroke-width:2.7368;stroke-linecap:round;stroke-linejoin:round;stroke-miterlimit:10"
   x1="145.925"
   y1="146.36301"
   x2="170.556"
   y2="167.345"
   id="line1622" />
			
				<path
   style="fill:none;stroke:#000000;stroke-width:2.7368;stroke-linecap:round;stroke-linejoin:round;stroke-miterlimit:10"
   d="m 150.573,125.335 c 0,0 8.842,6.928 19.983,17.379"
   id="path1624" />
			
				<line
   style="fill:none;stroke:#000000;stroke-width:2.7368;stroke-linecap:round;stroke-linejoin:round;stroke-miterlimit:10"
   x1="195.187"
   y1="146.36301"
   x2="170.556"
   y2="167.345"
   id="line1626" />
			
				<path
   style="fill:none;stroke:#000000;stroke-width:2.7368;stroke-linecap:round;stroke-linejoin:round;stroke-miterlimit:10"
   d="m 190.539,125.335 c 0,0 -8.842,6.928 -19.983,17.379"
   id="path1628" />
			
				<path
   style="fill:none;stroke:#000000;stroke-width:2.7368;stroke-linecap:round;stroke-linejoin:round;stroke-miterlimit:10"
   d="m 189.28,97.07 c 2.493,-0.369 5.044,-0.561 7.639,-0.561 28.795,0 52.138,23.343 52.138,52.138 0,0.146 -10e-4,0.293 -0.002,0.439 v -0.439 c 0.001,0.147 0.002,0.294 0.002,0.442 0,28.795 -23.343,52.138 -52.138,52.138 -28.795,0 -52.137,-23.563 -52.137,-52.358 0,-0.146 -0.001,0.146 0,0 -0.001,-0.147 0,0.147 0,0 0,-19.005 10.168,-35.732 25.361,-44.909"
   id="path1630" />
			
				<line
   style="fill:none;stroke:#000000;stroke-width:2.7368;stroke-linecap:round;stroke-linejoin:round;stroke-miterlimit:10"
   x1="170.556"
   y1="104.398"
   x2="170.556"
   y2="192.888"
   id="line1632" />
		</g>
	</g>
	<g
   id="g1664">
		<g
   id="g1662">
			
				<path
   style="fill:none;stroke:#000000;stroke-width:3.1499;stroke-linecap:round;stroke-linejoin:round;stroke-miterlimit:10"
   d="m 814.809,173.229 c 2.618,-6.796 4.056,-14.176 4.056,-21.895 0,-8.704 -1.827,-16.979 -5.114,-24.469"
   id="path1638" />
			
				<path
   style="fill:none;stroke:#000000;stroke-width:3.1499;stroke-linecap:round;stroke-linejoin:round;stroke-miterlimit:10"
   d="m 756.602,149.32 c 0.034,-0.001 0.068,-0.002 0.102,-0.003 0.01,-0.292 0.009,-0.587 0.022,-0.878 -0.049,-0.001 -0.098,-0.003 -0.146,-0.004 0.013,0.295 0.013,0.591 0.022,0.885 z"
   id="path1640" />
			
				<path
   style="fill:none;stroke:#000000;stroke-width:3.1499;stroke-linecap:round;stroke-linejoin:round;stroke-miterlimit:10"
   d="m 756.653,151.334 c 0,-0.676 0.029,-1.346 0.051,-2.017 -0.034,0.001 -0.068,0.002 -0.102,0.003 0.022,0.67 0.051,1.339 0.051,2.014 z"
   id="path1642" />
			
				<path
   style="fill:none;stroke:#000000;stroke-width:3.1499;stroke-linecap:round;stroke-linejoin:round;stroke-miterlimit:10"
   d="m 756.409,148.433 c -21.359,-0.507 -39.998,-11.982 -50.491,-29.023 -5.243,-8.516 -8.453,-18.415 -8.949,-29.027 10.874,0.228 21.046,3.293 29.805,8.499 11.22,6.669 20.119,16.831 25.194,28.989 0,0 -25.033,8.014 -39.733,-20.685"
   id="path1644" />
			
				<path
   style="fill:none;stroke:#000000;stroke-width:3.1499;stroke-linecap:round;stroke-linejoin:round;stroke-miterlimit:10"
   d="m 817.638,90.35 c -10.859,0 -21.047,2.851 -29.878,7.826 -17.772,10.011 -30.023,28.663 -31.033,50.264 0.385,0.007 0.767,0.029 1.155,0.029 21.975,0 41.228,-11.627 51.962,-29.06 5.244,-8.517 8.453,-18.418 8.949,-29.031 -0.386,-0.006 -0.768,-0.028 -1.155,-0.028 z"
   id="path1646" />
			
				<path
   style="fill:none;stroke:#000000;stroke-width:3.1499;stroke-linecap:round;stroke-linejoin:round;stroke-miterlimit:10"
   d="m 756.602,149.665 c 0.034,0.001 0.068,0.002 0.102,0.003 0.01,0.292 0.009,0.587 0.022,0.878 -0.049,0.001 -0.098,0.003 -0.146,0.004 0.013,-0.294 0.013,-0.591 0.022,-0.885 z"
   id="path1648" />
			
				<path
   style="fill:none;stroke:#000000;stroke-width:3.1499;stroke-linecap:round;stroke-linejoin:round;stroke-miterlimit:10"
   d="m 756.653,147.651 c 0,0.676 0.029,1.346 0.051,2.017 -0.034,-0.001 -0.068,-0.002 -0.102,-0.003 0.022,-0.67 0.051,-1.339 0.051,-2.014 z"
   id="path1650" />
			
				<path
   style="fill:none;stroke:#000000;stroke-width:3.1499;stroke-linecap:round;stroke-linejoin:round;stroke-miterlimit:10"
   d="m 705.919,179.576 c -5.243,8.516 -8.453,18.415 -8.949,29.027 10.874,-0.228 21.046,-3.293 29.805,-8.499 17.107,-10.167 28.818,-28.455 29.805,-49.555 -21.431,0.45 -40.141,11.94 -50.661,29.027 z"
   id="path1652" />
			
				<path
   style="fill:none;stroke:#000000;stroke-width:3.1499;stroke-linecap:round;stroke-linejoin:round;stroke-miterlimit:10"
   d="m 760.813,169.812 c 5.146,13.178 14.745,24.124 26.947,30.997 8.832,4.975 19.019,7.826 29.878,7.826 0.387,0 0.769,-0.022 1.155,-0.029 -0.496,-10.613 -3.706,-20.514 -8.949,-29.031 -10.734,-17.433 -29.987,-29.06 -51.962,-29.06 -0.131,0 -0.262,0.003 -0.393,0.006"
   id="path1654" />
			
				<path
   style="fill:none;stroke:#000000;stroke-width:3.1499;stroke-linecap:round;stroke-linejoin:round;stroke-miterlimit:10"
   d="m 700.75,173.229 c -2.618,-6.796 -4.057,-14.176 -4.057,-21.895 0,-8.704 1.827,-16.979 5.114,-24.469"
   id="path1656" />
			
				<path
   style="fill:none;stroke:#000000;stroke-width:3.1499;stroke-linecap:round;stroke-linejoin:round;stroke-miterlimit:10"
   d="m 734.598,93.018 c 6.795,-2.618 14.176,-4.056 21.895,-4.056 8.704,0 16.979,1.827 24.469,5.114"
   id="path1658" />
			
				<path
   style="fill:none;stroke:#000000;stroke-width:3.1499;stroke-linecap:round;stroke-linejoin:round;stroke-miterlimit:10"
   d="m 734.598,207.077 c 6.795,2.618 14.176,4.057 21.895,4.057 8.704,0 16.979,-1.827 24.469,-5.114"
   id="path1660" />
		</g>
	</g>
	<g
   id="g1682">
		<g
   id="g1680">
			
				<path
   style="fill:none;stroke:#000000;stroke-width:3.5082;stroke-linecap:round;stroke-linejoin:round;stroke-miterlimit:10"
   d="m 468.837,408.225 c 10.762,-15.994 31.014,-25.358 60.134,-27.268"
   id="path1666" />
			
				<path
   style="fill:none;stroke:#000000;stroke-width:3.5082;stroke-linecap:round;stroke-linejoin:round;stroke-miterlimit:10"
   d="m 464.186,313.102 c -69.728,0 -66.902,67.844 -66.902,67.844 101.703,21.672 65.928,78.209 65.928,78.209 0,0 -11.339,-17.903 -0.386,-39.78"
   id="path1668" />
			
				<path
   style="fill:none;stroke:#000000;stroke-width:3.5082;stroke-linecap:round;stroke-linejoin:round;stroke-miterlimit:10"
   d="m 528.328,369.14 c -2.8,-19.435 -14.872,-56.038 -66.089,-56.038"
   id="path1670" />
			
				<line
   style="fill:none;stroke:#000000;stroke-width:3.5082;stroke-linecap:round;stroke-linejoin:round;stroke-miterlimit:10"
   x1="463.18201"
   y1="400.73401"
   x2="463.18201"
   y2="313.10199"
   id="line1672" />
			
				<line
   style="fill:none;stroke:#000000;stroke-width:3.5082;stroke-linecap:round;stroke-linejoin:round;stroke-miterlimit:10"
   x1="464.186"
   y1="372.465"
   x2="520.72302"
   y2="349.85101"
   id="line1674" />
			
				<line
   style="fill:none;stroke:#000000;stroke-width:3.5082;stroke-linecap:round;stroke-linejoin:round;stroke-miterlimit:10"
   x1="463.24399"
   y1="355.504"
   x2="412.29901"
   y2="335.71701"
   id="line1676" />
			
				<line
   style="fill:none;stroke:#000000;stroke-width:3.5082;stroke-linecap:round;stroke-linejoin:round;stroke-miterlimit:10"
   x1="463.18201"
   y1="388.48401"
   x2="399.16901"
   y2="364.927"
   id="line1678" />
		</g>
	</g>
	<g
   id="g1694">
		<g
   id="g1692">
			<g
   id="g1688">
				
					<path
   style="fill:none;stroke:#000000;stroke-width:3.4813;stroke-linecap:round;stroke-linejoin:round;stroke-miterlimit:10"
   d="m 694.492,608.985 c 106.461,19.805 64.386,95.781 64.386,95.781 0,0 -17.08,-19.012 -0.377,-58.232"
   id="path1684" />
				
					<path
   style="fill:none;stroke:#000000;stroke-width:3.4813;stroke-linecap:round;stroke-linejoin:round;stroke-miterlimit:10"
   d="m 766.808,632.339 c 10.888,-13.486 29.556,-21.462 55.532,-23.304"
   id="path1686" />
			</g>
			
				<circle
   transform="matrix(0.9239,-0.3827,0.3827,0.9239,-170.9112,335.7128)"
   style="fill:none;stroke:#000000;stroke-width:3.4813;stroke-linecap:round;stroke-linejoin:round;stroke-miterlimit:10"
   cx="758.41602"
   cy="597.47101"
   id="circle1690"
   r="15.632" />
		</g>
	</g>
	<g
   id="g1702">
		<g
   id="g1700">
			
				<path
   style="fill:none;stroke:#000000;stroke-width:3.949;stroke-linecap:round;stroke-linejoin:round;stroke-miterlimit:10"
   d="m 1008.847,401.57 c 11.519,13.788 26.34,18.892 37.228,22.19 10.888,3.298 22.859,19.464 22.859,19.464 v 0 c 0,0 -13.779,-14.655 -15.088,-25.956 -1.309,-11.301 -3.695,-26.793 -15.214,-40.581 v 0 c -11.519,-13.788 -26.34,-18.891 -37.228,-22.19 -10.888,-3.298 -22.859,-19.464 -22.859,-19.464 v 0 c 0,0 13.779,14.655 15.087,25.956 1.309,11.301 3.695,26.793 15.215,40.581"
   id="path1696" />
			
				<path
   style="fill:none;stroke:#000000;stroke-width:3.949;stroke-linecap:round;stroke-linejoin:round;stroke-miterlimit:10"
   d="m 1080.02,401.57 c -11.519,13.788 -26.34,18.892 -37.228,22.19 -10.888,3.298 -22.859,19.464 -22.859,19.464 v 0 c 0,0 13.779,-14.655 15.088,-25.956 1.309,-11.301 3.695,-26.793 15.214,-40.581 v 0 c 11.52,-13.788 26.34,-18.891 37.228,-22.19 10.888,-3.298 22.859,-19.464 22.859,-19.464 v 0 c 0,0 -13.779,14.655 -15.087,25.956 -1.309,11.301 -3.695,26.793 -15.215,40.581"
   id="path1698" />
		</g>
	</g>
	<g
   id="g1714">
		<g
   id="g1712">
			
				<path
   style="fill:none;stroke:#000000;stroke-width:3.3486;stroke-linecap:round;stroke-linejoin:round;stroke-miterlimit:10"
   d="M 526.172,168.003 C 419.987,140.076 464.241,80.028 464.241,80.028 c 0,0 16.429,17.462 0.363,53.486"
   id="path1704" />
			
				<path
   style="fill:none;stroke:#000000;stroke-width:3.3486;stroke-linecap:round;stroke-linejoin:round;stroke-miterlimit:10"
   d="m 458.953,143.525 c -10.022,14.223 -28.797,22.607 -55.755,24.432"
   id="path1706" />
			
				<path
   style="fill:none;stroke:#000000;stroke-width:3.3486;stroke-linecap:round;stroke-linejoin:round;stroke-miterlimit:10"
   d="m 465.721,197.604 c 14.517,9.244 32.193,10.074 47.035,3.509 7.632,-3.376 14.505,-8.711 19.818,-15.86 -7.318,-4.705 -15.449,-7.261 -23.622,-7.803 -16.398,-1.087 -32.946,5.948 -43.417,20.038 -0.024,0.032 -0.048,0.064 -0.072,0.096 z"
   id="path1708" />
			
				<path
   style="fill:none;stroke:#000000;stroke-width:3.3486;stroke-linecap:round;stroke-linejoin:round;stroke-miterlimit:10"
   d="m 465.422,197.604 c -14.517,9.244 -32.193,10.074 -47.035,3.509 -7.632,-3.376 -14.505,-8.711 -19.818,-15.86 7.318,-4.705 15.449,-7.261 23.621,-7.803 16.398,-1.087 32.946,5.948 43.417,20.038 0.024,0.032 0.048,0.064 0.072,0.096 z"
   id="path1710" />
		</g>
	</g>
	<g
   id="g1734">
		<g
   id="g1732">
			<path
   d="m 120.443,429.82 c 0,0 30.482,-1.452 34.111,-34.111 -32.659,3.63 -34.111,34.111 -34.111,34.111 z"
   id="path1716" />
			<path
   d="m 218.8,429.82 c 0,0 -30.482,-1.452 -34.111,-34.111 32.659,3.63 34.111,34.111 34.111,34.111 z"
   id="path1718" />
			<path
   d="m 120.443,335.783 c 0,0 30.482,1.451 34.111,34.11 -32.659,-3.628 -34.111,-34.11 -34.111,-34.11 z"
   id="path1720" />
			<path
   d="m 218.8,335.783 c 0,0 -30.482,1.451 -34.111,34.11 32.659,-3.628 34.111,-34.11 34.111,-34.11 z"
   id="path1722" />
			
				<path
   style="fill:none;stroke:#000000;stroke-width:3.2058;stroke-linecap:round;stroke-linejoin:round;stroke-miterlimit:10"
   d="m 129.346,393.421 c 9.083,0 15.867,-4.624 20.676,-8.186 4.809,-3.562 14.961,-2.89 14.961,-2.89 v 0 c 0,0 -10.152,0.672 -14.961,-2.89 -4.809,-3.562 -11.592,-8.186 -20.676,-8.186 v 0 c -9.083,0 -15.867,4.624 -20.675,8.186 -4.809,3.562 -14.961,2.89 -14.961,2.89 v 0 c 0,0 10.152,-0.672 14.961,2.89 4.808,3.562 11.592,8.186 20.675,8.186"
   id="path1724" />
			
				<path
   style="fill:none;stroke:#000000;stroke-width:3.2058;stroke-linecap:round;stroke-linejoin:round;stroke-miterlimit:10"
   d="m 209.546,393.421 c 9.083,0 15.867,-4.624 20.676,-8.186 4.809,-3.562 14.96,-2.89 14.96,-2.89 v 0 c 0,0 -10.152,0.672 -14.96,-2.89 -4.809,-3.562 -11.592,-8.186 -20.676,-8.186 v 0 c -9.083,0 -15.867,4.624 -20.676,8.186 -4.809,3.562 -14.96,2.89 -14.96,2.89 v 0 c 0,0 10.152,-0.672 14.96,2.89 4.81,3.562 11.593,8.186 20.676,8.186"
   id="path1726" />
			
				<path
   style="fill:none;stroke:#000000;stroke-width:3.2058;stroke-linecap:round;stroke-linejoin:round;stroke-miterlimit:10"
   d="m 169.569,314.233 c 0,0 -26.607,27.606 0,62.157 26.608,-34.551 0,-62.157 0,-62.157 z"
   id="path1728" />
			
				<path
   style="fill:none;stroke:#000000;stroke-width:3.2058;stroke-linecap:round;stroke-linejoin:round;stroke-miterlimit:10"
   d="m 169.569,390.584 c 0,0 -26.607,27.606 0,62.157 26.608,-34.551 0,-62.157 0,-62.157 z"
   id="path1730" />
		</g>
	</g>
	<g
   id="g1754">
		<g
   id="g1744">
			
				<path
   style="fill:none;stroke:#000000;stroke-width:2.8165;stroke-linecap:round;stroke-linejoin:round;stroke-miterlimit:10"
   d="m 1091.062,163.349 c -88.086,-22.538 -51.375,-70.998 -51.375,-70.998 0,0 13.629,14.093 0.301,43.165"
   id="path1736" />
			
				<path
   style="fill:none;stroke:#000000;stroke-width:2.8165;stroke-linecap:round;stroke-linejoin:round;stroke-miterlimit:10"
   d="m 1034.892,144.146 c -8.41,11.144 -23.841,17.716 -45.844,19.166"
   id="path1738" />
			
				<path
   style="fill:none;stroke:#000000;stroke-width:2.8165;stroke-linecap:round;stroke-linejoin:round;stroke-miterlimit:10"
   d="m 989.049,141.513 c 88.086,22.538 51.375,70.999 51.375,70.999 0,0 -13.629,-14.093 -0.301,-43.165"
   id="path1740" />
			
				<path
   style="fill:none;stroke:#000000;stroke-width:2.8165;stroke-linecap:round;stroke-linejoin:round;stroke-miterlimit:10"
   d="m 1045.949,159.781 c 8.558,-10.577 23.733,-16.823 45.113,-18.231"
   id="path1742" />
		</g>
		
			<path
   style="fill:none;stroke:#000000;stroke-width:2.8165;stroke-linecap:round;stroke-linejoin:round;stroke-miterlimit:10"
   d="m 978.321,185.337 c -5.76,-10.25 -9.045,-22.077 -9.045,-34.672 0,-11.137 2.568,-21.674 7.145,-31.051"
   id="path1746" />
		
			<path
   style="fill:none;stroke:#000000;stroke-width:2.8165;stroke-linecap:round;stroke-linejoin:round;stroke-miterlimit:10"
   d="m 1103.887,119.613 c 4.577,9.377 7.146,19.915 7.146,31.052 0,12.594 -3.285,24.422 -9.045,34.672"
   id="path1748" />
		
			<path
   style="fill:none;stroke:#000000;stroke-width:2.8165;stroke-linecap:round;stroke-linejoin:round;stroke-miterlimit:10"
   d="m 1006.525,88.831 c 10.25,-5.76 22.077,-9.045 34.672,-9.045 11.137,0 21.674,2.569 31.051,7.145"
   id="path1750" />
		
			<path
   style="fill:none;stroke:#000000;stroke-width:2.8165;stroke-linecap:round;stroke-linejoin:round;stroke-miterlimit:10"
   d="m 1072.249,214.397 c -9.377,4.577 -19.915,7.146 -31.052,7.146 -12.594,0 -24.422,-3.285 -34.672,-9.045"
   id="path1752" />
	</g>
</g></clipPath></defs><g
     inkscape:label="Capa 1"
     inkscape:groupmode="layer"
     id="layer1"
     transform="translate(-651.50004,-52.342779)"><g
       id="g528"
       transform="matrix(0.26458333,0,0,0.26458333,-52.024045,27.843619)"><g
         id="g1882"
         transform="translate(449.8248,182.59585)"><g
           id="OBJECTS"
           transform="translate(-303.54888,5.0931021)">
	
	
	
<g
   id="g3210"
   transform="translate(-710.4297,-427.95407)"><g
     id="g2981"
     transform="translate(2137.7715,195.91437)">
	
	<g
   id="g2951">
		<path
   style="fill:#ce907a"
   d="m 1595.13,139.205 c 0,0 50.32,1.637 93.149,85.95 44.236,87.083 89.823,222.301 89.823,222.301 h -89.823 c 10e-4,0 -201.904,-331.756 -93.149,-308.251 z"
   id="path2949" />
	</g>
	<g
   id="g2955">
		<path
   style="fill:#dda690"
   d="m 1797.994,530.041 c 0,33.924 -5.365,66.596 -15.297,97.205 -40.911,-3.316 -89.251,-20.392 -133.079,-59.581 -23.608,-21.103 -45.778,-49.278 -64.732,-77.24 -19.424,-28.645 -35.462,-57.034 -46.205,-77.326 -9.449,-17.801 -14.814,-29.37 -14.814,-29.37 0,0 -3.173,10.786 -9.036,26.909 -1.964,5.393 -4.226,11.399 -6.759,17.788 -2.59,6.489 -5.464,13.391 -8.609,20.492 -7.201,16.236 -15.838,33.512 -25.657,49.25 -0.669,1.053 -1.338,2.106 -2.006,3.145 -1.48,2.319 -3.003,4.582 -4.539,6.816 -2.704,3.913 -5.749,7.997 -9.107,12.238 -39.773,50.374 -140.948,114.452 -182.813,163.773 -1.039,15.326 16.72,35.931 6.945,58.288 -11.415,2.489 -26.259,4.274 -45.01,9.304 -14.586,3.913 -18.883,11.242 -25.699,15.895 -27.45,18.712 -39.93,32.701 -74.266,30.353 -34.337,-2.348 -46.803,-18.129 -51.94,-33.44 19.936,-12.537 44.298,-14.188 90.816,-48.667 6.09,-4.511 12.665,-10.288 19.566,-17.048 4.34,-4.24 8.808,-8.879 13.362,-13.846 43.615,-47.471 95.37,-124.356 119.689,-170.589 30.922,-58.741 110.268,-221.647 139.781,-252.54 43.899,3.514 181.917,46.717 278.083,95.839 0.868,1.324 1.722,2.633 2.547,3.97 13.832,21.786 25.045,45.394 33.213,70.368 10.102,30.848 15.566,63.791 15.566,98.014 z"
   id="path2953" />
	</g>
	<g
   id="g2959">
		<path
   style="fill:#efbca3"
   d="m 1493.771,612.987 c 12.021,-89.156 -2.846,-261.832 12.241,-346.672 5.078,-28.553 38.513,-124.816 78.136,-129.369 39.116,19.257 77.284,65.893 49.077,172.941 -28.207,107.048 -57.816,180.093 -73.996,233.734 -16.18,53.641 -27.037,103.044 -27.037,103.044 0,0 -5.15,47.503 -6.353,77.492 -1.337,33.35 -5.98,59.117 -14.281,71.686 -20.159,2.386 -57.157,-10.673 -72.573,-36.286 10.69,-31.975 37.247,-82.354 41.979,-102.101 2.524,-10.533 2.217,-22.37 2.236,-28.104 0.013,-4.06 5.705,-5.453 10.571,-16.365 z"
   id="path2957" />
	</g>
	<g
   id="g2969">
		<g
   id="g2963">
			<path
   style="fill:#7accf9"
   d="m 1411.056,455.537 -67.778,97.758 c 0,0 -29.518,12.357 -32.144,-9.487 l 57.873,-109.734 c 0,10e-4 40.968,5.774 42.049,21.463 z"
   id="path2961" />
		</g>
		<g
   id="g2967">
			<path
   style="fill:#d4eff9"
   d="m 1316.973,555.516 c -3.893,-2.267 -6.197,-6.165 -6.849,-11.586 -0.024,-0.205 0.014,-0.413 0.111,-0.596 l 57.873,-109.733 c 0.2,-0.38 0.61,-0.576 1.041,-0.532 1.706,0.239 41.797,6.074 42.922,22.4 0.016,0.23 -0.047,0.459 -0.179,0.65 l -67.778,97.758 c -0.111,0.159 -0.264,0.283 -0.443,0.357 -0.516,0.217 -9.832,4.053 -18.576,3.52 -2.881,-0.177 -5.7,-0.827 -8.122,-2.238 z m 93.037,-100.255 c -1.485,-13.361 -35.118,-19.227 -40.441,-20.071 l -57.385,108.808 c 0.618,4.591 2.573,7.872 5.81,9.76 8.254,4.81 22.491,-0.457 24.623,-1.292 z"
   id="path2965" />
		</g>
	</g>
	<g
   id="g2973">
		<path
   style="fill:#3eaaf8"
   d="m 1343.278,553.295 c 0,0 -41.415,21.928 -65.25,-21.642 -23.834,-43.569 20.296,-32.047 25.132,-22.242 4.836,9.806 0.923,51.683 40.118,43.884 z"
   id="path2971" />
	</g>
	<g
   id="g2979">
		<g
   id="g2977">
			<path
   style="fill:#d4eff9"
   d="m 1332.118,555.2 c 3.465,0.211 7.256,-0.091 11.359,-0.907 0.551,-0.11 0.908,-0.645 0.799,-1.195 -0.11,-0.552 -0.643,-0.915 -1.196,-0.799 -9.519,1.893 -17.2,0.897 -22.83,-2.957 -9.529,-6.528 -11.908,-20.106 -13.644,-30.021 -0.761,-4.345 -1.418,-8.099 -2.533,-10.358 -2.257,-4.576 -11.686,-9.125 -19.887,-9.625 -0.081,-0.005 -0.163,-0.01 -0.244,-0.015 -5.79,-0.298 -10.025,1.416 -12.247,4.954 -3.476,5.535 -1.645,14.911 5.441,27.865 0.27,0.49 0.887,0.677 1.381,0.403 0.493,-0.268 0.205,-0.667 -0.064,-1.161 -8.354,-15.27 -7.135,-22.68 -5.035,-26.025 2.282,-3.634 6.927,-4.185 10.42,-4.005 8.077,0.455 16.678,4.993 18.411,8.508 0.985,1.999 1.619,5.617 2.353,9.809 1.799,10.271 4.262,24.336 14.499,31.347 3.615,2.478 7.971,3.874 13.017,4.182 z"
   id="path2975" />
		</g>
	</g>
</g></g></g></g></g></g></svg>
